{
  "accessors": [
    {
      "bufferView": 2,
      "componentType": 5126,
      "count": 65532,
      "max": [
        2.453061819076538,
        -1.4034124612808228,
        0.3097154498100281
      ],
      "min": [
        -4.536884784698486,
        -6.077631950378418,
        -1.8782252073287964
      ],
      "type": "VEC3"
    },
    {
      "bufferView": 2,
      "byteOffset": 786384,
      "componentType": 5126,
      "count": 65532,
      "max": [
        0.9999776482582092,
        0.9999926686286926,
        0.9995995163917542
      ],
      "min": [
        -0.9999434351921082,
        -0.9999657273292542,
        -0.9999867677688599
      ],
      "type": "VEC3"
    },
    {
      "bufferView": 1,
      "componentType": 5126,
      "count": 65532,
      "max": [
        0.9998694062232971,
        0.9999843239784241
      ],
      "min": [
        4.2764768295455724e-05,
        2.4811366529320367e-05
      ],
      "type": "VEC2"
    },
    {
      "bufferView": 0,
      "componentType": 5125,
      "count": 248106,
      "type": "SCALAR"
    },
    {
      "bufferView": 2,
      "byteOffset": 1572768,
      "componentType": 5126,
      "count": 65532,
      "max": [
        3.035640001296997,
        -0.009100516326725483,
        1.2568961381912231
      ],
      "min": [
        -4.170915603637695,
        -8.669939041137695,
        -0.7321687936782837
      ],
      "type": "VEC3"
    },
    {
      "bufferView": 2,
      "byteOffset": 2359152,
      "componentType": 5126,
      "count": 65532,
      "max": [
        0.9998953342437744,
        0.999933123588562,
        0.9990418553352356
      ],
      "min": [
        -0.9998267889022827,
        -0.9999141693115234,
        -0.9999927282333374
      ],
      "type": "VEC3"
    },
    {
      "bufferView": 1,
      "byteOffset": 524256,
      "componentType": 5126,
      "count": 65532,
      "max": [
        0.9998632073402405,
        0.9992089867591858
      ],
      "min": [
        0.00016946496907621622,
        4.73774616693845e-06
      ],
      "type": "VEC2"
    },
    {
      "bufferView": 0,
      "byteOffset": 992424,
      "componentType": 5125,
      "count": 264057,
      "type": "SCALAR"
    },
    {
      "bufferView": 2,
      "byteOffset": 3145536,
      "componentType": 5126,
      "count": 65532,
      "max": [
        4.5184197425842285,
        1.107178807258606,
        0.39424893260002136
      ],
      "min": [
        -3.0481786727905273,
        -6.646286487579346,
        -0.7739639282226563
      ],
      "type": "VEC3"
    },
    {
      "bufferView": 2,
      "byteOffset": 3931920,
      "componentType": 5126,
      "count": 65532,
      "max": [
        0.9998197555541992,
        0.9999527931213379,
        0.9998262524604797
      ],
      "min": [
        -0.9999148845672607,
        -0.9999783635139465,
        -0.9999986290931702
      ],
      "type": "VEC3"
    },
    {
      "bufferView": 1,
      "byteOffset": 1048512,
      "componentType": 5126,
      "count": 65532,
      "max": [
        0.9998359084129333,
        0.9996092319488525
      ],
      "min": [
        0.0001267122570425272,
        0.0002706805244088173
      ],
      "type": "VEC2"
    },
    {
      "bufferView": 0,
      "byteOffset": 2048652,
      "componentType": 5125,
      "count": 256452,
      "type": "SCALAR"
    },
    {
      "bufferView": 2,
      "byteOffset": 4718304,
      "componentType": 5126,
      "count": 65532,
      "max": [
        5.164383411407471,
        3.1446352005004883,
        0.21882203221321106
      ],
      "min": [
        -4.145495891571045,
        -1.3852492570877075,
        -1.0361363887786865
      ],
      "type": "VEC3"
    },
    {
      "bufferView": 2,
      "byteOffset": 5504688,
      "componentType": 5126,
      "count": 65532,
      "max": [
        0.9999387264251709,
        0.9999921321868896,
        0.9994817972183228
      ],
      "min": [
        -0.9999147057533264,
        -0.999649167060852,
        -0.9999973773956299
      ],
      "type": "VEC3"
    },
    {
      "bufferView": 1,
      "byteOffset": 1572768,
      "componentType": 5126,
      "count": 65532,
      "max": [
        0.9998528361320496,
        0.9996034502983093
      ],
      "min": [
        1.4284893950389232e-05,
        2.291740383952856e-05
      ],
      "type": "VEC2"
    },
    {
      "bufferView": 0,
      "byteOffset": 3074460,
      "componentType": 5125,
      "count": 214398,
      "type": "SCALAR"
    },
    {
      "bufferView": 2,
      "byteOffset": 6291072,
      "componentType": 5126,
      "count": 65532,
      "max": [
        2.4393839836120605,
        4.625387191772461,
        0.36120447516441345
      ],
      "min": [
        -4.153372287750244,
        -0.15841180086135864,
        -0.8654494881629944
      ],
      "type": "VEC3"
    },
    {
      "bufferView": 2,
      "byteOffset": 7077456,
      "componentType": 5126,
      "count": 65532,
      "max": [
        0.9999133944511414,
        0.9999616146087646,
        0.9995977878570557
      ],
      "min": [
        -0.9999514818191528,
        -0.9999845027923584,
        -0.9999986886978149
      ],
      "type": "VEC3"
    },
    {
      "bufferView": 1,
      "byteOffset": 2097024,
      "componentType": 5126,
      "count": 65532,
      "max": [
        0.9998549818992615,
        0.9999784827232361
      ],
      "min": [
        4.8768841224955395e-05,
        0.0003900068695656955
      ],
      "type": "VEC2"
    },
    {
      "bufferView": 0,
      "byteOffset": 3932052,
      "componentType": 5125,
      "count": 226899,
      "type": "SCALAR"
    },
    {
      "bufferView": 2,
      "byteOffset": 7863840,
      "componentType": 5126,
      "count": 65532,
      "max": [
        3.4978580474853516,
        7.250677585601807,
        0.6905742287635803
      ],
      "min": [
        -3.932870388031006,
        2.004723072052002,
        -0.6311243772506714
      ],
      "type": "VEC3"
    },
    {
      "bufferView": 2,
      "byteOffset": 8650224,
      "componentType": 5126,
      "count": 65532,
      "max": [
        0.9999603629112244,
        0.9999262094497681,
        0.9997483491897583
      ],
      "min": [
        -0.9999790787696838,
        -0.9998639225959778,
        -0.9999866485595703
      ],
      "type": "VEC3"
    },
    {
      "bufferView": 1,
      "byteOffset": 2621280,
      "componentType": 5126,
      "count": 65532,
      "max": [
        0.9994971752166748,
        0.9977557063102722
      ],
      "min": [
        2.137085539288819e-05,
        4.742422606796026e-05
      ],
      "type": "VEC2"
    },
    {
      "bufferView": 0,
      "byteOffset": 4839648,
      "componentType": 5125,
      "count": 251718,
      "type": "SCALAR"
    },
    {
      "bufferView": 2,
      "byteOffset": 9436608,
      "componentType": 5126,
      "count": 65532,
      "max": [
        4.656697750091553,
        8.173888206481934,
        1.6211611032485962
      ],
      "min": [
        -2.707082748413086,
        -4.83053731918335,
        -1.7543445825576782
      ],
      "type": "VEC3"
    },
    {
      "bufferView": 2,
      "byteOffset": 10222992,
      "componentType": 5126,
      "count": 65532,
      "max": [
        0.9994813203811646,
        0.999999463558197,
        0.9991297125816345
      ],
      "min": [
        -0.9999334812164307,
        -0.999999463558197,
        -0.9999939203262329
      ],
      "type": "VEC3"
    },
    {
      "bufferView": 1,
      "byteOffset": 3145536,
      "componentType": 5126,
      "count": 65532,
      "max": [
        0.9997469186782837,
        0.999353289604187
      ],
      "min": [
        4.357057696324773e-05,
        6.0091406339779496e-05
      ],
      "type": "VEC2"
    },
    {
      "bufferView": 0,
      "byteOffset": 5846520,
      "componentType": 5125,
      "count": 241257,
      "type": "SCALAR"
    },
    {
      "bufferView": 2,
      "byteOffset": 11009376,
      "componentType": 5126,
      "count": 65532,
      "max": [
        2.0601651668548584,
        -1.4939489364624023,
        0.29769882559776306
      ],
      "min": [
        -4.495853424072266,
        -5.931674480438232,
        -1.872624397277832
      ],
      "type": "VEC3"
    },
    {
      "bufferView": 2,
      "byteOffset": 11795760,
      "componentType": 5126,
      "count": 65532,
      "max": [
        0.9999503493309021,
        0.9999829530715942,
        0.999914288520813
      ],
      "min": [
        -0.999978244304657,
        -0.9999260306358337,
        -0.9999951720237732
      ],
      "type": "VEC3"
    },
    {
      "bufferView": 1,
      "byteOffset": 3669792,
      "componentType": 5126,
      "count": 65532,
      "max": [
        1.0,
        0.9999821186065674
      ],
      "min": [
        1.405482180416584e-06,
        4.73774616693845e-06
      ],
      "type": "VEC2"
    },
    {
      "bufferView": 0,
      "byteOffset": 6811548,
      "componentType": 5125,
      "count": 184701,
      "type": "SCALAR"
    },
    {
      "bufferView": 2,
      "byteOffset": 12582144,
      "componentType": 5126,
      "count": 65532,
      "max": [
        3.562870979309082,
        -0.28189852833747864,
        1.2568961381912231
      ],
      "min": [
        -4.173152923583984,
        -8.668900489807129,
        -0.6636792421340942
      ],
      "type": "VEC3"
    },
    {
      "bufferView": 2,
      "byteOffset": 13368528,
      "componentType": 5126,
      "count": 65532,
      "max": [
        0.9999985694885254,
        0.9999475479125977,
        0.999810516834259
      ],
      "min": [
        -0.9999544620513916,
        -0.9999226927757263,
        -0.9999684691429138
      ],
      "type": "VEC3"
    },
    {
      "bufferView": 1,
      "byteOffset": 4194048,
      "componentType": 5126,
      "count": 65532,
      "max": [
        0.9998749494552612,
        0.9999686479568481
      ],
      "min": [
        1.0473653674125671e-05,
        1.4031538739800453e-05
      ],
      "type": "VEC2"
    },
    {
      "bufferView": 0,
      "byteOffset": 7550352,
      "componentType": 5125,
      "count": 205593,
      "type": "SCALAR"
    },
    {
      "bufferView": 2,
      "byteOffset": 14154912,
      "componentType": 5126,
      "count": 65534,
      "max": [
        4.517693042755127,
        6.080322742462158,
        0.7607770562171936
      ],
      "min": [
        -4.036324501037598,
        -6.650223731994629,
        -0.7732393145561218
      ],
      "type": "VEC3"
    },
    {
      "bufferView": 2,
      "byteOffset": 14941320,
      "componentType": 5126,
      "count": 65534,
      "max": [
        0.9999420642852783,
        0.9999639987945557,
        0.9991021156311035
      ],
      "min": [
        -0.9999399781227112,
        -0.9999892711639404,
        -0.9999856948852539
      ],
      "type": "VEC3"
    },
    {
      "bufferView": 1,
      "byteOffset": 4718304,
      "componentType": 5126,
      "count": 65534,
      "max": [
        0.999876081943512,
        0.9999775886535645
      ],
      "min": [
        0.00013290448987390846,
        5.825990228913724e-06
      ],
      "type": "VEC2"
    },
    {
      "bufferView": 0,
      "byteOffset": 8372724,
      "componentType": 5125,
      "count": 192159,
      "type": "SCALAR"
    },
    {
      "bufferView": 2,
      "byteOffset": 15727728,
      "componentType": 5126,
      "count": 65532,
      "max": [
        3.5613009929656982,
        8.20337200164795,
        1.6558181047439575
      ],
      "min": [
        -3.3396806716918945,
        2.034156322479248,
        -0.5001028180122375
      ],
      "type": "VEC3"
    },
    {
      "bufferView": 2,
      "byteOffset": 16514112,
      "componentType": 5126,
      "count": 65532,
      "max": [
        0.9999668598175049,
        0.9999919533729553,
        0.9989423751831055
      ],
      "min": [
        -0.999988317489624,
        -0.9999210238456726,
        -0.9999939203262329
      ],
      "type": "VEC3"
    },
    {
      "bufferView": 1,
      "byteOffset": 5242576,
      "componentType": 5126,
      "count": 65532,
      "max": [
        0.999861478805542,
        0.9987090229988098
      ],
      "min": [
        1.532562055217568e-05,
        5.849791341461241e-05
      ],
      "type": "VEC2"
    },
    {
      "bufferView": 0,
      "byteOffset": 9141360,
      "componentType": 5125,
      "count": 191379,
      "type": "SCALAR"
    },
    {
      "bufferView": 2,
      "byteOffset": 17300496,
      "componentType": 5126,
      "count": 65532,
      "max": [
        4.715428352355957,
        5.523269176483154,
        0.6846043467521667
      ],
      "min": [
        -4.1540679931640625,
        -0.03215659037232399,
        -0.8219861388206482
      ],
      "type": "VEC3"
    },
    {
      "bufferView": 2,
      "byteOffset": 18086880,
      "componentType": 5126,
      "count": 65532,
      "max": [
        0.999998927116394,
        0.9999556541442871,
        0.999004602432251
      ],
      "min": [
        -0.9999610781669617,
        -0.999999463558197,
        -0.9999824166297913
      ],
      "type": "VEC3"
    },
    {
      "bufferView": 1,
      "byteOffset": 5766832,
      "componentType": 5126,
      "count": 65532,
      "max": [
        0.999870777130127,
        0.9996067881584167
      ],
      "min": [
        3.833738082903437e-05,
        0.00017808168195188046
      ],
      "type": "VEC2"
    },
    {
      "bufferView": 0,
      "byteOffset": 9906876,
      "componentType": 5125,
      "count": 176292,
      "type": "SCALAR"
    },
    {
      "bufferView": 2,
      "byteOffset": 18873264,
      "componentType": 5126,
      "count": 65532,
      "max": [
        5.1643805503845215,
        2.96981143951416,
        0.20893554389476776
      ],
      "min": [
        -4.153322696685791,
        -1.2235554456710815,
        -1.04070246219635
      ],
      "type": "VEC3"
    },
    {
      "bufferView": 2,
      "byteOffset": 19659648,
      "componentType": 5126,
      "count": 65532,
      "max": [
        0.9998660087585449,
        0.9999014139175415,
        0.9994097948074341
      ],
      "min": [
        -0.9999715685844421,
        -0.9999954104423523,
        -0.9999948740005493
      ],
      "type": "VEC3"
    },
    {
      "bufferView": 1,
      "byteOffset": 6291088,
      "componentType": 5126,
      "count": 65532,
      "max": [
        0.9998673796653748,
        0.9996102452278137
      ],
      "min": [
        3.583111538318917e-05,
        3.073513994422683e-07
      ],
      "type": "VEC2"
    },
    {
      "bufferView": 0,
      "byteOffset": 10612044,
      "componentType": 5125,
      "count": 160833,
      "type": "SCALAR"
    },
    {
      "bufferView": 2,
      "byteOffset": 20446032,
      "componentType": 5126,
      "count": 64511,
      "max": [
        4.517683029174805,
        1.194559931755066,
        0.38325032591819763
      ],
      "min": [
        -2.7827048301696777,
        -4.960348129272461,
        -0.9644886255264282
      ],
      "type": "VEC3"
    },
    {
      "bufferView": 2,
      "byteOffset": 21220164,
      "componentType": 5126,
      "count": 64511,
      "max": [
        0.9999257326126099,
        0.9998418092727661,
        0.9991000294685364
      ],
      "min": [
        -0.9999620914459229,
        -0.9999004006385803,
        -0.9999986290931702
      ],
      "type": "VEC3"
    },
    {
      "bufferView": 1,
      "byteOffset": 6815344,
      "componentType": 5126,
      "count": 64511,
      "max": [
        0.9998612999916077,
        0.999600887298584
      ],
      "min": [
        4.2928208131343126e-05,
        1.2315053027123213e-05
      ],
      "type": "VEC2"
    },
    {
      "bufferView": 0,
      "byteOffset": 11255376,
      "componentType": 5125,
      "count": 186156,
      "type": "SCALAR"
    }
  ],
  "asset": {
    "extras": {
      "author": "yuma.jp (https://sketchfab.com/YYouzhen)",
      "license": "CC-BY-4.0 (http://creativecommons.org/licenses/by/4.0/)",
      "source": "https://sketchfab.com/3d-models/underwater-terrain-agisoftnaturechallenge-56296264dad244eab43874fe8f419f99",
      "title": "Underwater Terrain - #AgisoftNatureChallenge"
    },
    "generator": "Sketchfab-11.31.0",
    "version": "2.0"
  },
  "bufferViews": [
    {
      "buffer": 0,
      "byteLength": 12000000,
      "name": "floatBufferViews",
      "target": 34963
    },
    {
      "buffer": 0,
      "byteLength": 7331432,
      "byteOffset": 12000000,
      "byteStride": 8,
      "name": "floatBufferViews",
      "target": 34962
    },
    {
      "buffer": 0,
      "byteLength": 21994296,
      "byteOffset": 19331432,
      "byteStride": 12,
      "name": "floatBufferViews",
      "target": 34962
    }
  ],
  "buffers": [
    {
      "byteLength": 41325728,
      "uri": "scene.bin"
    }
  ],
  "extensionsUsed": [
    "KHR_materials_unlit"
  ],
  "images": [
    {
      "uri": "textures/material0_baseColor.jpeg"
    }
  ],
  "materials": [
    {
      "doubleSided": true,
      "extensions": {
        "KHR_materials_unlit": {}
      },
      "name": "material0",
      "pbrMetallicRoughness": {
        "baseColorTexture": {
          "index": 0
        },
        "metallicFactor": 0.0
      }
    }
  ],
  "meshes": [
    {
      "name": "Model_material0_0",
      "primitives": [
        {
          "attributes": {
            "NORMAL": 1,
            "POSITION": 0,
            "TEXCOORD_0": 2
          },
          "indices": 3,
          "material": 0,
          "mode": 4
        }
      ]
    },
    {
      "name": "Model_material0_0",
      "primitives": [
        {
          "attributes": {
            "NORMAL": 5,
            "POSITION": 4,
            "TEXCOORD_0": 6
          },
          "indices": 7,
          "material": 0,
          "mode": 4
        }
      ]
    },
    {
      "name": "Model_material0_0",
      "primitives": [
        {
          "attributes": {
            "NORMAL": 9,
            "POSITION": 8,
            "TEXCOORD_0": 10
          },
          "indices": 11,
          "material": 0,
          "mode": 4
        }
      ]
    },
    {
      "name": "Model_material0_0",
      "primitives": [
        {
          "attributes": {
            "NORMAL": 13,
            "POSITION": 12,
            "TEXCOORD_0": 14
          },
          "indices": 15,
          "material": 0,
          "mode": 4
        }
      ]
    },
    {
      "name": "Model_material0_0",
      "primitives": [
        {
          "attributes": {
            "NORMAL": 17,
            "POSITION": 16,
            "TEXCOORD_0": 18
          },
          "indices": 19,
          "material": 0,
          "mode": 4
        }
      ]
    },
    {
      "name": "Model_material0_0",
      "primitives": [
        {
          "attributes": {
            "NORMAL": 21,
            "POSITION": 20,
            "TEXCOORD_0": 22
          },
          "indices": 23,
          "material": 0,
          "mode": 4
        }
      ]
    },
    {
      "name": "Model_material0_0",
      "primitives": [
        {
          "attributes": {
            "NORMAL": 25,
            "POSITION": 24,
            "TEXCOORD_0": 26
          },
          "indices": 27,
          "material": 0,
          "mode": 4
        }
      ]
    },
    {
      "name": "Model_material0_0",
      "primitives": [
        {
          "attributes": {
            "NORMAL": 29,
            "POSITION": 28,
            "TEXCOORD_0": 30
          },
          "indices": 31,
          "material": 0,
          "mode": 4
        }
      ]
    },
    {
      "name": "Model_material0_0",
      "primitives": [
        {
          "attributes": {
            "NORMAL": 33,
            "POSITION": 32,
            "TEXCOORD_0": 34
          },
          "indices": 35,
          "material": 0,
          "mode": 4
        }
      ]
    },
    {
      "name": "Model_material0_0",
      "primitives": [
        {
          "attributes": {
            "NORMAL": 37,
            "POSITION": 36,
            "TEXCOORD_0": 38
          },
          "indices": 39,
          "material": 0,
          "mode": 4
        }
      ]
    },
    {
      "name": "Model_material0_0",
      "primitives": [
        {
          "attributes": {
            "NORMAL": 41,
            "POSITION": 40,
            "TEXCOORD_0": 42
          },
          "indices": 43,
          "material": 0,
          "mode": 4
        }
      ]
    },
    {
      "name": "Model_material0_0",
      "primitives": [
        {
          "attributes": {
            "NORMAL": 45,
            "POSITION": 44,
            "TEXCOORD_0": 46
          },
          "indices": 47,
          "material": 0,
          "mode": 4
        }
      ]
    },
    {
      "name": "Model_material0_0",
      "primitives": [
        {
          "attributes": {
            "NORMAL": 49,
            "POSITION": 48,
            "TEXCOORD_0": 50
          },
          "indices": 51,
          "material": 0,
          "mode": 4
        }
      ]
    },
    {
      "name": "Model_material0_0",
      "primitives": [
        {
          "attributes": {
            "NORMAL": 53,
            "POSITION": 52,
            "TEXCOORD_0": 54
          },
          "indices": 55,
          "material": 0,
          "mode": 4
        }
      ]
    }
  ],
  "nodes": [
    {
      "children": [
        1
      ],
      "matrix": [
        1.0,
        0.0,
        0.0,
        0.0,
        0.0,
        2.220446049250313e-16,
        -1.0,
        0.0,
        0.0,
        1.0,
        2.220446049250313e-16,
        0.0,
        0.0,
        0.0,
        0.0,
        1.0
      ],
      "name": "Sketchfab_model"
    },
    {
      "children": [
        2
      ],
      "matrix": [
        1.0,
        0.0,
        0.0,
        0.0,
        0.0,
        -1.0,
        0.0,
        0.0,
        0.0,
        0.0,
        -1.0,
        0.0,
        0.0,
        0.0,
        0.0,
        1.0
      ],
      "name": "model.fbx"
    },
    {
      "children": [
        3
      ],
      "name": "RootNode"
    },
    {
      "children": [
        4,
        5,
        6,
        7,
        8,
        9,
        10,
        11,
        12,
        13,
        14,
        15,
        16,
        17
      ],
      "name": "Model"
    },
    {
      "mesh": 0,
      "name": "Model_material0_0"
    },
    {
      "mesh": 1,
      "name": "Model_material0_0"
    },
    {
      "mesh": 2,
      "name": "Model_material0_0"
    },
    {
      "mesh": 3,
      "name": "Model_material0_0"
    },
    {
      "mesh": 4,
      "name": "Model_material0_0"
    },
    {
      "mesh": 5,
      "name": "Model_material0_0"
    },
    {
      "mesh": 6,
      "name": "Model_material0_0"
    },
    {
      "mesh": 7,
      "name": "Model_material0_0"
    },
    {
      "mesh": 8,
      "name": "Model_material0_0"
    },
    {
      "mesh": 9,
      "name": "Model_material0_0"
    },
    {
      "mesh": 10,
      "name": "Model_material0_0"
    },
    {
      "mesh": 11,
      "name": "Model_material0_0"
    },
    {
      "mesh": 12,
      "name": "Model_material0_0"
    },
    {
      "mesh": 13,
      "name": "Model_material0_0"
    }
  ],
  "samplers": [
    {
      "magFilter": 9729,
      "minFilter": 9987,
      "wrapS": 10497,
      "wrapT": 10497
    }
  ],
  "scene": 0,
  "scenes": [
    {
      "name": "Sketchfab_Scene",
      "nodes": [
        0
      ]
    }
  ],
  "textures": [
    {
      "sampler": 0,
      "source": 0
    }
  ]
}
