{
  "accessors": [
    {
      "bufferView": 2,
      "componentType": 5126,
      "count": 9956,
      "max": [
        3.7404201030731201,
        2.1889939308166504,
        4.0981178283691406
      ],
      "min": [
        -5.1092081069946289,
        -7.310603141784668,
        -0.28978699445724487
      ],
      "type": "VEC3"
    },
    {
      "bufferView": 2,
      "byteOffset": 119472,
      "componentType": 5126,
      "count": 9956,
      "max": [
        1,
        1,
        1
      ],
      "min": [
        -1,
        -1,
        -1
      ],
      "type": "VEC3"
    },
    {
      "bufferView": 3,
      "componentType": 5126,
      "count": 9956,
      "max": [
        1,
        0.99997496604919434,
        1,
        1
      ],
      "min": [
        -1,
        -1,
        -1,
        -1
      ],
      "type": "VEC4"
    },
    {
      "bufferView": 1,
      "componentType": 5126,
      "count": 9956,
      "max": [
        0.98524099588394165,
        0.98636502027511597
      ],
      "min": [
        0.004999999888241291,
        0.004999999888241291
      ],
      "type": "VEC2"
    },
    {
      "bufferView": 0,
      "componentType": 5125,
      "count": 17514,
      "max": [
        9955
      ],
      "min": [
        0
      ],
      "type": "SCALAR"
    },
    {
      "bufferView": 2,
      "byteOffset": 238944,
      "componentType": 5126,
      "count": 9991,
      "max": [
        2.0710930824279785,
        2.1889939308166504,
        4.065803050994873
      ],
      "min": [
        -3.0387120246887207,
        -5.3590178489685059,
        -0.27549099922180176
      ],
      "type": "VEC3"
    },
    {
      "bufferView": 2,
      "byteOffset": 358836,
      "componentType": 5126,
      "count": 9991,
      "max": [
        0.99999988079071045,
        1,
        1
      ],
      "min": [
        -0.9999692440032959,
        -0.99999922513961792,
        -1
      ],
      "type": "VEC3"
    },
    {
      "bufferView": 3,
      "byteOffset": 159296,
      "componentType": 5126,
      "count": 9991,
      "max": [
        1,
        0.99996769428253174,
        1,
        1
      ],
      "min": [
        -1,
        -1,
        -1,
        -1
      ],
      "type": "VEC4"
    },
    {
      "bufferView": 1,
      "byteOffset": 79648,
      "componentType": 5126,
      "count": 9991,
      "max": [
        0.97903501987457275,
        0.99500000476837158
      ],
      "min": [
        0.004999999888241291,
        0.004999999888241291
      ],
      "type": "VEC2"
    },
    {
      "bufferView": 0,
      "byteOffset": 70056,
      "componentType": 5125,
      "count": 18723,
      "max": [
        9990
      ],
      "min": [
        0
      ],
      "type": "SCALAR"
    },
    {
      "bufferView": 2,
      "byteOffset": 478728,
      "componentType": 5126,
      "count": 7482,
      "max": [
        3.2330410480499268,
        2.1026558876037598,
        3.1096329689025879
      ],
      "min": [
        -3.8748760223388672,
        -5.7084851264953613,
        -0.28978699445724487
      ],
      "type": "VEC3"
    },
    {
      "bufferView": 2,
      "byteOffset": 568512,
      "componentType": 5126,
      "count": 7482,
      "max": [
        0.99961590766906738,
        0.99999988079071045,
        1
      ],
      "min": [
        -1,
        -0.99997377395629883,
        -0.97241878509521484
      ],
      "type": "VEC3"
    },
    {
      "bufferView": 3,
      "byteOffset": 319152,
      "componentType": 5126,
      "count": 7482,
      "max": [
        0.99999308586120605,
        0.99996340274810791,
        1,
        1
      ],
      "min": [
        -0.99998724460601807,
        -1,
        -1,
        -1
      ],
      "type": "VEC4"
    },
    {
      "bufferView": 1,
      "byteOffset": 159576,
      "componentType": 5126,
      "count": 7482,
      "max": [
        0.98037701845169067,
        0.98371100425720215
      ],
      "min": [
        0.004999999888241291,
        0.004999999888241291
      ],
      "type": "VEC2"
    },
    {
      "bufferView": 0,
      "byteOffset": 144948,
      "componentType": 5125,
      "count": 12723,
      "max": [
        7481
      ],
      "min": [
        0
      ],
      "type": "SCALAR"
    },
    {
      "bufferView": 2,
      "byteOffset": 658296,
      "componentType": 5126,
      "count": 10089,
      "max": [
        3.7446000576019287,
        2.1164689064025879,
        3.9325010776519775
      ],
      "min": [
        -5.1368927955627441,
        -7.3106842041015625,
        -0.27538099884986877
      ],
      "type": "VEC3"
    },
    {
      "bufferView": 2,
      "byteOffset": 779364,
      "componentType": 5126,
      "count": 10089,
      "max": [
        0.99999678134918213,
        0.99999988079071045,
        1
      ],
      "min": [
        -0.9999997615814209,
        -1,
        -1
      ],
      "type": "VEC3"
    },
    {
      "bufferView": 3,
      "byteOffset": 438864,
      "componentType": 5126,
      "count": 10089,
      "max": [
        0.9999966025352478,
        1,
        1,
        1
      ],
      "min": [
        -0.99999397993087769,
        -0.99974256753921509,
        -1,
        -1
      ],
      "type": "VEC4"
    },
    {
      "bufferView": 1,
      "byteOffset": 219432,
      "componentType": 5126,
      "count": 10089,
      "max": [
        0.97623497247695923,
        0.97955101728439331
      ],
      "min": [
        0.004999999888241291,
        0.004999999888241291
      ],
      "type": "VEC2"
    },
    {
      "bufferView": 0,
      "byteOffset": 195840,
      "componentType": 5125,
      "count": 36747,
      "max": [
        10088
      ],
      "min": [
        0
      ],
      "type": "SCALAR"
    },
    {
      "bufferView": 2,
      "byteOffset": 900432,
      "componentType": 5126,
      "count": 10046,
      "max": [
        2.0638139247894287,
        2.1920909881591797,
        2.1191179752349854
      ],
      "min": [
        -1.8251999616622925,
        -2.3910911083221436,
        -0.28967800736427307
      ],
      "type": "VEC3"
    },
    {
      "bufferView": 2,
      "byteOffset": 1020984,
      "componentType": 5126,
      "count": 10046,
      "max": [
        1,
        0.99999988079071045,
        1
      ],
      "min": [
        -1,
        -0.99997663497924805,
        -1
      ],
      "type": "VEC3"
    },
    {
      "bufferView": 3,
      "byteOffset": 600288,
      "componentType": 5126,
      "count": 10046,
      "max": [
        0.99997931718826294,
        1,
        1,
        1
      ],
      "min": [
        -0.99999982118606567,
        -0.99997591972351074,
        -1,
        -1
      ],
      "type": "VEC4"
    },
    {
      "bufferView": 1,
      "byteOffset": 300144,
      "componentType": 5126,
      "count": 10046,
      "max": [
        0.99299997091293335,
        0.99489301443099976
      ],
      "min": [
        0.004999999888241291,
        0.004999999888241291
      ],
      "type": "VEC2"
    },
    {
      "bufferView": 0,
      "byteOffset": 342828,
      "componentType": 5125,
      "count": 36747,
      "max": [
        10045
      ],
      "min": [
        0
      ],
      "type": "SCALAR"
    },
    {
      "bufferView": 2,
      "byteOffset": 1141536,
      "componentType": 5126,
      "count": 9866,
      "max": [
        5.3463320732116699,
        3.1853148937225342,
        4.8772659301757812
      ],
      "min": [
        -6.0949430465698242,
        -8.6219215393066406,
        -0.70708101987838745
      ],
      "type": "VEC3"
    },
    {
      "bufferView": 2,
      "byteOffset": 1259928,
      "componentType": 5126,
      "count": 9866,
      "max": [
        0.99999850988388062,
        0.99999850988388062,
        1
      ],
      "min": [
        -0.99999850988388062,
        -0.99999850988388062,
        -1
      ],
      "type": "VEC3"
    },
    {
      "bufferView": 3,
      "byteOffset": 761024,
      "componentType": 5126,
      "count": 9866,
      "max": [
        0.99999850988388062,
        1,
        1,
        1
      ],
      "min": [
        -0.99999856948852539,
        -1,
        -1,
        -1
      ],
      "type": "VEC4"
    },
    {
      "bufferView": 1,
      "byteOffset": 380512,
      "componentType": 5126,
      "count": 9866,
      "max": [
        0.95156401395797729,
        0.95765799283981323
      ],
      "min": [
        0.004999999888241291,
        0.004999999888241291
      ],
      "type": "VEC2"
    },
    {
      "bufferView": 0,
      "byteOffset": 489816,
      "componentType": 5125,
      "count": 28800,
      "max": [
        9865
      ],
      "min": [
        0
      ],
      "type": "SCALAR"
    },
    {
      "bufferView": 2,
      "byteOffset": 1378320,
      "componentType": 5126,
      "count": 2474,
      "max": [
        3.0372140407562256,
        2.998276948928833,
        3.4511549472808838
      ],
      "min": [
        -3.1209609508514404,
        -3.1598970890045166,
        1.6277810335159302
      ],
      "type": "VEC3"
    },
    {
      "bufferView": 2,
      "byteOffset": 1408008,
      "componentType": 5126,
      "count": 2474,
      "max": [
        0.99999850988388062,
        0.99999850988388062,
        1
      ],
      "min": [
        -0.99999845027923584,
        -0.99999845027923584,
        -1
      ],
      "type": "VEC3"
    },
    {
      "bufferView": 3,
      "byteOffset": 918880,
      "componentType": 5126,
      "count": 2474,
      "max": [
        0.99999850988388062,
        1,
        1,
        1
      ],
      "min": [
        -0.99999856948852539,
        -1,
        -1,
        -1
      ],
      "type": "VEC4"
    },
    {
      "bufferView": 1,
      "byteOffset": 459440,
      "componentType": 5126,
      "count": 2474,
      "max": [
        0.91856300830841064,
        0.90374702215194702
      ],
      "min": [
        0.064364999532699585,
        0.004999999888241291
      ],
      "type": "VEC2"
    },
    {
      "bufferView": 0,
      "byteOffset": 605016,
      "componentType": 5125,
      "count": 7200,
      "max": [
        2473
      ],
      "min": [
        0
      ],
      "type": "SCALAR"
    }
  ],
  "asset": {
    "extras": {
      "author": "Kirill1991 (https://sketchfab.com/Kirill1991)",
      "license": "CC-BY-4.0 (http://creativecommons.org/licenses/by/4.0/)",
      "source": "https://sketchfab.com/3d-models/coins-a43b47f4eed140a9bd0f5d05849140df",
      "title": "Coins"
    },
    "generator": "Sketchfab-8.46.0",
    "version": "2.0"
  },
  "bufferViews": [
    {
      "buffer": 0,
      "byteLength": 633816,
      "byteOffset": 0,
      "name": "floatBufferViews",
      "target": 34963
    },
    {
      "buffer": 0,
      "byteLength": 479232,
      "byteOffset": 633816,
      "byteStride": 8,
      "name": "floatBufferViews",
      "target": 34962
    },
    {
      "buffer": 0,
      "byteLength": 1437696,
      "byteOffset": 1113048,
      "byteStride": 12,
      "name": "floatBufferViews",
      "target": 34962
    },
    {
      "buffer": 0,
      "byteLength": 958464,
      "byteOffset": 2550744,
      "byteStride": 16,
      "name": "floatBufferViews",
      "target": 34962
    }
  ],
  "buffers": [
    {
      "byteLength": 3509208,
      "uri": "scene.bin"
    }
  ],
  "images": [
    {
      "uri": "textures/coinsCoin1SG_baseColor.png"
    },
    {
      "uri": "textures/coinsCoin1SG_metallicRoughness.png"
    },
    {
      "uri": "textures/coinsCoin1SG_normal.png"
    }
  ],
  "materials": [
    {
      "doubleSided": true,
      "name": "coinsCoin1SG",
      "normalTexture": {
        "index": 2,
        "scale": 1,
        "texCoord": 0
      },
      "occlusionTexture": {
        "index": 1,
        "strength": 1,
        "texCoord": 0
      },
      "pbrMetallicRoughness": {
        "baseColorFactor": [
          1,
          1,
          1,
          1
        ],
        "baseColorTexture": {
          "index": 0,
          "texCoord": 0
        },
        "metallicFactor": 1,
        "metallicRoughnessTexture": {
          "index": 1,
          "texCoord": 0
        },
        "roughnessFactor": 0.91981619636527256
      }
    },
    {
      "doubleSided": true,
      "name": "coinsinitialShadingGroup",
      "normalTexture": {
        "index": 2,
        "scale": 1,
        "texCoord": 0
      },
      "occlusionTexture": {
        "index": 1,
        "strength": 1,
        "texCoord": 0
      },
      "pbrMetallicRoughness": {
        "baseColorFactor": [
          1,
          1,
          1,
          1
        ],
        "baseColorTexture": {
          "index": 0,
          "texCoord": 0
        },
        "metallicFactor": 1,
        "metallicRoughnessTexture": {
          "index": 1,
          "texCoord": 0
        },
        "roughnessFactor": 0.91981619636527256
      }
    }
  ],
  "meshes": [
    {
      "primitives": [
        {
          "attributes": {
            "NORMAL": 1,
            "POSITION": 0,
            "TANGENT": 2,
            "TEXCOORD_0": 3
          },
          "indices": 4,
          "material": 0,
          "mode": 4
        }
      ]
    },
    {
      "primitives": [
        {
          "attributes": {
            "NORMAL": 6,
            "POSITION": 5,
            "TANGENT": 7,
            "TEXCOORD_0": 8
          },
          "indices": 9,
          "material": 0,
          "mode": 4
        }
      ]
    },
    {
      "primitives": [
        {
          "attributes": {
            "NORMAL": 11,
            "POSITION": 10,
            "TANGENT": 12,
            "TEXCOORD_0": 13
          },
          "indices": 14,
          "material": 0,
          "mode": 4
        }
      ]
    },
    {
      "primitives": [
        {
          "attributes": {
            "NORMAL": 16,
            "POSITION": 15,
            "TANGENT": 17,
            "TEXCOORD_0": 18
          },
          "indices": 19,
          "material": 0,
          "mode": 4
        }
      ]
    },
    {
      "primitives": [
        {
          "attributes": {
            "NORMAL": 21,
            "POSITION": 20,
            "TANGENT": 22,
            "TEXCOORD_0": 23
          },
          "indices": 24,
          "material": 0,
          "mode": 4
        }
      ]
    },
    {
      "primitives": [
        {
          "attributes": {
            "NORMAL": 26,
            "POSITION": 25,
            "TANGENT": 27,
            "TEXCOORD_0": 28
          },
          "indices": 29,
          "material": 1,
          "mode": 4
        }
      ]
    },
    {
      "primitives": [
        {
          "attributes": {
            "NORMAL": 31,
            "POSITION": 30,
            "TANGENT": 32,
            "TEXCOORD_0": 33
          },
          "indices": 34,
          "material": 1,
          "mode": 4
        }
      ]
    }
  ],
  "nodes": [
    {
      "children": [
        1
      ],
      "name": "RootNode (gltf orientation matrix)",
      "rotation": [
        -0.70710678118654746,
        -0,
        -0,
        0.70710678118654757
      ]
    },
    {
      "children": [
        2
      ],
      "name": "RootNode (model correction matrix)"
    },
    {
      "children": [
        3,
        4,
        5,
        6,
        7,
        8,
        9
      ],
      "name": "Coins_coat.obj.cleaner.materialmerger.gles"
    },
    {
      "mesh": 0,
      "name": ""
    },
    {
      "mesh": 1,
      "name": ""
    },
    {
      "mesh": 2,
      "name": ""
    },
    {
      "mesh": 3,
      "name": ""
    },
    {
      "mesh": 4,
      "name": ""
    },
    {
      "mesh": 5,
      "name": ""
    },
    {
      "mesh": 6,
      "name": ""
    }
  ],
  "samplers": [
    {
      "magFilter": 9729,
      "minFilter": 9987,
      "wrapS": 10497,
      "wrapT": 10497
    }
  ],
  "scene": 0,
  "scenes": [
    {
      "name": "OSG_Scene",
      "nodes": [
        0
      ]
    }
  ],
  "textures": [
    {
      "sampler": 0,
      "source": 0
    },
    {
      "sampler": 0,
      "source": 1
    },
    {
      "sampler": 0,
      "source": 2
    }
  ]
}

